<svg xmlns="http://www.w3.org/2000/svg" viewBox="0 0 139.8 121.3"><g fill="#d8d8d8" stroke="#d8d8d8" stroke-width=".5"><path d="M129.9 138.6h-20l10-17.3z"/><path d="M139.9 121.3l-10 17.3-10-17.3zm0 17.3h-10l10-17.3zm0 17.4l-10-17.4h10z"/></g><path fill="#d8d8d8" stroke="#d8d8d8" stroke-width=".5" d="M79.9 121.3h-20l10-17.3z"/><path fill="#d8d8d8" stroke="#d8d8d8" stroke-width=".5" d="M89.9 104l-10 17.3-10-17.3zm10 17.3h-20l10-17.3z"/><path fill="#d8d8d8" stroke="#d8d8d8" stroke-width=".5" d="M109.9 104l-10 17.3-10-17.3zm0 0h-20l10-17.3zm-10 17.3l-10 17.3-10-17.3zm10 17.3h-20l10-17.3z"/><g fill="#d8d8d8" stroke="#d8d8d8" stroke-width=".5"><path d="M39.9 156h-20l10-17.4z"/><path d="M49.9 138.6l-10 17.4-10-17.4zm10 17.4h-20l10-17.4zm10-17.4l-10 17.4-10-17.4zm0 0h-20l10-17.3z"/></g><path fill="#d8d8d8" stroke="#d8d8d8" stroke-width=".5" d="M119.9 156h-20l10-17.4zm-90-52h-20l10-17.3z"/><path fill="#d8d8d8" stroke="#d8d8d8" stroke-width=".5" d="M39.9 86.7l-10 17.3-10-17.3zm10 17.3h-20l10-17.3z"/><path fill="#d8d8d8" stroke="#d8d8d8" stroke-width=".5" d="M59.9 86.7l-10 17.3-10-17.3zm0 0h-20l10-17.3zm-10 17.3l-10 17.3-10-17.3zm10 17.3h-20l10-17.3z"/><g fill="#d8d8d8" stroke="#d8d8d8" stroke-width=".5"><path d="M9.9 138.6h-10v-17.3z"/><path d="M19.9 121.3l-10 17.3-10-17.3zm0 0h-20l10-17.3zm-10 17.3L-.1 156v-17.4z"/><path d="M19.9 156h-20l10-17.4z"/></g><g fill="#d8d8d8" stroke="#d8d8d8" stroke-width=".5"><path d="M69.9 69.4h-20l10-17.4z"/><path d="M79.9 52l-10 17.4-10-17.4zm10 17.4h-20l10-17.4z"/><path d="M99.9 52l-10 17.4-10-17.4zm0 0h-20l10-17.3zm-10 17.4l-10 17.3-10-17.3zm10 17.3h-20l10-17.3z"/></g><g fill="#d8d8d8" stroke="#d8d8d8" stroke-width=".5"><path d="M119.9 86.7h-20l10-17.3z"/><path d="M129.9 69.4l-10 17.3-10-17.3zm10 17.3h-20l10-17.3z"/><path d="M139.9 86.7l-10-17.3h10zm0-17.3h-10l10-17.4zm0 17.3l-10 17.3-10-17.3zm0 17.3h-10l10-17.3z"/></g><g fill="#d8d8d8" stroke="#d8d8d8" stroke-width=".5"><path d="M19.9 52h-20l10-17.3z"/><path d="M29.9 34.7L19.9 52l-10-17.3zm10 17.3h-20l10-17.3z"/><path d="M49.9 34.7L39.9 52l-10-17.3zm0 0h-20l10-17.3zM39.9 52l-10 17.4-10-17.4zm10 17.4h-20l10-17.4z"/></g><path fill="#d8d8d8" stroke="#d8d8d8" stroke-width=".5" d="M9.9 69.3l-10 17.3V69.3zm0 0h-10V52zm0 34.7h-10V86.6z"/><g fill="#d8d8d8" stroke="#d8d8d8" stroke-width=".5"><path d="M109.9 34.7h-20l10-17.3z"/><path d="M119.9 17.4l-10 17.3-10-17.3zm10 17.3h-20l10-17.3z"/><path d="M139.9 17.4l-10 17.3-10-17.3zm0 0h-20l10-17.3zm-10 17.3l-10 17.3-10-17.3zm10 17.3h-20l10-17.3z"/></g></svg>